<?xml version="1.0" standalone="no"?>
<!DOCTYPE svg PUBLIC "-//W3C//DTD SVG 20010904//EN"
 "http://www.w3.org/TR/2001/REC-SVG-20010904/DTD/svg10.dtd">
<svg version="1.0" xmlns="http://www.w3.org/2000/svg"
 width="1280.000000pt" height="1280.000000pt" viewBox="0 0 1280.000000 1280.000000"
 preserveAspectRatio="xMidYMid meet">

<g transform="translate(0.000000,1280.000000) scale(0.100000,-0.100000)"
fill="#000000" stroke="none">

<path d="M2170 12285 c-8 -2 -36 -6 -62 -10 -86 -11 -152 -97 -152 -200 0 -93
54 -173 131 -194 24 -7 195 -11 453 -11 228 0 476 -5 550 -10 145 -11 330 -35
395 -52 22 -5 56 -14 75 -18 193 -48 407 -135 595 -240 55 -30 233 -147 245
-160 3 -3 25 -21 50 -40 182 -141 355 -332 434 -483 50 -94 66 -143 66 -204 0
-62 -9 -78 -112 -198 -78 -92 -188 -249 -223 -320 -11 -22 -29 -56 -40 -75
-35 -58 -125 -292 -125 -322 0 -9 -4 -27 -9 -40 -14 -38 -33 -119 -42 -188
-14 -97 -38 -386 -38 -457 -1 -81 8 -82 131 -5 51 32 143 83 204 114 60 30
119 60 130 66 10 6 37 18 59 27 70 29 79 33 127 54 26 11 76 30 110 42 35 11
72 24 83 29 38 15 239 73 345 100 89 21 232 47 389 70 226 33 706 33 926 0
277 -41 566 -106 670 -150 11 -5 29 -11 40 -13 32 -8 163 -56 213 -79 26 -11
63 -27 82 -35 72 -30 86 -36 115 -51 17 -9 38 -19 48 -24 9 -4 27 -13 40 -20
12 -6 45 -22 72 -36 52 -25 179 -100 227 -133 15 -11 37 -19 49 -19 l22 0 -7
173 c-6 158 -20 285 -47 427 -18 96 -66 258 -80 274 -5 6 -9 18 -9 28 0 10 -4
26 -9 36 -5 9 -28 58 -52 107 -64 134 -157 277 -255 395 -49 58 -94 111 -101
119 -28 28 -53 92 -53 135 0 45 27 121 52 147 7 8 45 57 84 109 83 112 262
295 392 400 123 99 300 210 442 277 146 68 145 68 205 88 28 10 59 21 70 25
52 20 164 54 205 60 25 5 83 16 130 25 133 27 289 35 815 43 542 8 525 6 577
74 69 92 62 201 -17 283 -23 23 -55 45 -71 50 -16 4 -177 9 -359 12 -579 9
-936 -22 -1265 -109 -41 -11 -91 -23 -110 -28 -30 -7 -200 -66 -280 -98 -60
-24 -240 -115 -300 -151 -36 -22 -74 -45 -85 -50 -65 -30 -318 -235 -434 -352
-49 -49 -164 -177 -192 -214 -13 -16 -26 -32 -29 -35 -4 -3 -39 -51 -79 -108
-136 -191 -175 -203 -369 -115 -82 37 -113 49 -152 62 -19 6 -64 21 -100 33
-36 11 -83 24 -105 28 -22 5 -92 18 -155 30 -102 19 -140 21 -330 17 -142 -3
-242 -10 -295 -21 -44 -8 -93 -18 -110 -22 -90 -18 -373 -117 -410 -143 -5 -4
-36 -16 -68 -25 -109 -34 -147 -10 -274 167 -151 210 -362 433 -528 557 -58
44 -67 51 -99 78 -8 6 -19 12 -25 12 -5 0 -11 4 -13 8 -10 26 -412 242 -449
242 -8 0 -19 4 -25 9 -10 9 -127 50 -219 76 -33 9 -71 21 -85 26 -23 8 -49 14
-170 40 -117 24 -234 41 -330 49 -58 5 -150 13 -205 18 -99 11 -866 25 -895
17z"/>
<path d="M1810 8985 c-182 -33 -309 -66 -605 -160 -38 -12 -110 -34 -160 -50
-190 -59 -842 -277 -875 -292 -19 -9 -58 -39 -86 -68 -40 -39 -53 -61 -59 -93
-4 -23 -11 -42 -16 -42 -5 0 -9 -31 -9 -70 0 -40 4 -70 10 -70 6 0 10 -7 10
-16 0 -33 43 -108 88 -151 73 -70 93 -78 202 -78 78 0 107 5 165 26 39 15 178
61 310 104 132 42 249 81 260 85 27 11 72 25 350 115 132 42 247 80 255 84 14
8 82 24 206 51 51 11 202 -1 249 -20 11 -4 42 -16 70 -26 60 -21 170 -98 257
-179 35 -33 86 -80 114 -104 27 -23 74 -66 104 -95 31 -28 85 -78 120 -110
247 -227 443 -438 488 -525 10 -20 24 -63 30 -96 13 -68 5 -114 -65 -385 -11
-41 -26 -102 -33 -135 -7 -33 -19 -82 -26 -109 -8 -27 -14 -64 -14 -82 0 -18
-4 -54 -10 -81 -5 -26 -17 -120 -26 -208 -14 -133 -22 -171 -46 -223 -51 -111
-159 -195 -286 -221 -36 -8 -358 -11 -1023 -11 l-970 0 -54 -25 c-90 -43 -142
-113 -169 -227 -17 -75 1 -169 48 -242 36 -57 67 -83 131 -112 38 -17 100 -18
1015 -19 864 -1 982 -3 1040 -17 130 -32 173 -52 216 -100 54 -60 67 -99 98
-298 25 -159 27 -172 36 -250 17 -139 51 -340 75 -445 9 -38 20 -86 25 -105 4
-19 16 -62 26 -95 9 -33 19 -94 21 -136 l4 -77 -36 -37 -37 -36 -82 5 c-368
25 -474 19 -636 -35 -93 -30 -254 -111 -280 -139 -3 -3 -27 -22 -55 -42 -46
-33 -166 -153 -240 -238 -32 -37 -185 -247 -185 -254 0 -3 -22 -40 -48 -83
-27 -43 -67 -112 -89 -153 -22 -41 -53 -97 -69 -125 -45 -80 -168 -320 -375
-732 l-192 -382 -1 -74 c0 -64 4 -83 29 -132 67 -127 197 -194 343 -176 111
14 176 69 253 216 14 28 50 95 79 150 30 55 71 134 93 175 21 41 52 100 69
130 30 55 79 147 178 335 29 55 66 125 83 155 17 30 49 91 72 135 23 44 67
128 98 188 98 187 175 291 246 333 17 10 31 21 31 24 0 5 33 23 90 48 105 47
267 69 382 52 80 -11 171 -33 213 -50 11 -4 40 -14 65 -21 25 -7 70 -26 100
-42 30 -17 75 -41 100 -55 66 -36 184 -128 261 -202 37 -37 122 -143 193 -245
144 -205 138 -197 202 -290 26 -38 66 -93 88 -122 23 -28 66 -84 96 -124 49
-64 156 -196 170 -209 3 -3 21 -25 41 -50 42 -51 44 -53 158 -181 130 -145
407 -414 501 -487 47 -37 87 -69 90 -72 20 -25 203 -144 273 -179 175 -87 291
-93 418 -22 85 48 130 99 174 201 20 44 20 89 20 3725 0 3535 -1 3683 -18
3750 -19 73 -29 101 -53 148 -8 16 -14 33 -14 39 0 5 -21 42 -46 81 -52 80
-146 182 -214 232 -63 46 -184 107 -255 129 -33 11 -73 24 -90 29 -42 16 -321
14 -370 -2 -22 -8 -60 -20 -85 -28 -66 -21 -140 -58 -279 -140 -67 -40 -125
-73 -127 -73 -15 0 -293 -210 -369 -279 -22 -20 -72 -63 -110 -96 -74 -63
-131 -113 -149 -131 -33 -31 -196 -144 -208 -144 -8 0 -20 -6 -26 -12 -8 -8
-43 -13 -95 -13 -79 0 -85 2 -152 42 -39 23 -84 55 -100 70 -17 15 -73 66
-125 113 -52 47 -104 94 -115 105 -25 23 -166 151 -210 190 -16 14 -61 52
-100 83 -38 31 -72 59 -75 62 -51 52 -233 187 -305 227 -117 65 -180 89 -318
122 -63 15 -273 12 -367 -4z"/>
<path d="M10640 8988 c-119 -32 -156 -45 -250 -91 -58 -27 -107 -53 -110 -56
-3 -3 -36 -27 -75 -53 -38 -26 -79 -55 -90 -65 -11 -10 -45 -37 -75 -60 -30
-23 -64 -50 -75 -60 -11 -10 -40 -34 -65 -53 -25 -19 -47 -37 -50 -40 -3 -3
-41 -37 -85 -75 -44 -39 -105 -93 -135 -121 -30 -28 -98 -89 -150 -135 -52
-46 -104 -92 -115 -102 -11 -10 -49 -33 -85 -50 -60 -30 -71 -32 -170 -32 -95
1 -111 4 -165 30 -58 28 -84 49 -260 220 -111 108 -146 139 -245 220 -47 38
-87 72 -90 75 -18 21 -252 166 -335 208 -182 92 -405 152 -562 152 -133 0
-301 -43 -398 -103 -27 -17 -61 -36 -74 -43 -13 -7 -53 -41 -89 -76 -162 -157
-246 -328 -272 -556 -14 -123 -14 -7217 0 -7298 17 -96 45 -151 110 -213 60
-57 210 -99 310 -86 69 9 142 26 177 41 17 8 34 14 38 14 4 0 35 14 69 31 213
107 390 264 651 579 71 85 132 157 135 160 3 3 31 37 62 75 31 39 65 79 75 90
10 11 35 41 56 67 21 26 43 53 50 60 7 7 32 38 56 68 25 30 49 60 55 65 6 6
24 28 40 50 17 22 33 42 36 45 16 13 196 258 273 372 47 70 105 154 128 185
63 87 187 204 281 266 90 59 256 144 310 157 18 5 58 16 88 25 130 40 358 42
470 6 70 -23 144 -57 173 -79 50 -39 163 -161 183 -197 11 -22 37 -69 56 -105
44 -80 106 -197 168 -315 25 -49 63 -119 82 -155 34 -62 64 -118 165 -310 25
-47 62 -116 83 -155 48 -90 120 -225 183 -345 99 -189 150 -235 281 -251 61
-8 80 -6 136 12 59 19 127 62 157 99 7 8 26 41 43 72 45 86 38 180 -22 293 -9
17 -37 71 -63 120 -75 142 -160 303 -239 450 -23 44 -68 127 -98 185 -90 171
-138 261 -176 330 -19 36 -58 108 -85 160 -74 142 -97 183 -110 204 -69 110
-126 188 -175 240 -68 72 -201 184 -254 214 -126 71 -171 93 -238 117 -173 62
-349 91 -486 81 -49 -3 -124 -9 -166 -12 -97 -8 -122 -1 -159 39 -25 27 -29
39 -29 92 0 34 6 81 14 106 7 24 18 62 24 84 6 22 17 65 25 95 8 30 20 82 27
115 6 33 16 80 22 105 6 25 14 72 19 105 24 160 29 197 44 285 9 52 20 122 25
155 33 222 103 322 260 368 141 41 160 42 1120 42 919 0 925 0 965 21 83 44
103 59 138 109 86 123 88 226 8 353 -34 54 -88 98 -155 126 -34 14 -140 16
-1010 16 -1045 0 -1021 -1 -1126 52 -90 46 -200 188 -200 260 0 12 -4 47 -10
77 -5 31 -19 119 -30 196 -11 77 -27 176 -36 220 -8 44 -20 100 -24 125 -5 25
-17 77 -26 115 -90 388 -66 528 122 720 92 93 278 268 469 440 61 55 130 118
155 141 25 24 59 53 75 65 17 13 36 29 42 35 7 7 43 32 80 57 189 123 354 139
631 62 28 -8 78 -22 110 -31 85 -24 354 -113 374 -124 10 -6 25 -10 33 -10 8
0 23 -4 33 -10 9 -5 60 -23 112 -40 52 -17 104 -34 115 -39 31 -13 148 -53
170 -58 11 -3 29 -9 40 -13 64 -27 275 -92 315 -97 26 -3 73 -2 103 1 45 6 65
15 112 54 54 44 68 64 127 184 11 25 10 146 -2 153 -5 3 -10 16 -10 28 0 28
-45 96 -85 129 -39 33 -161 85 -250 108 -32 8 -146 47 -180 61 -11 5 -141 48
-290 97 -148 49 -335 111 -415 137 -80 26 -161 51 -180 56 -19 4 -60 15 -90
25 -61 18 -88 24 -235 53 -109 22 -349 27 -415 9z"/>
</g>
</svg>
