<?xml version="1.0" standalone="no"?>
<!DOCTYPE svg PUBLIC "-//W3C//DTD SVG 20010904//EN"
 "http://www.w3.org/TR/2001/REC-SVG-20010904/DTD/svg10.dtd">
<svg version="1.0" xmlns="http://www.w3.org/2000/svg"
 width="1280.000000pt" height="1280.000000pt" viewBox="0 0 1280.000000 1280.000000"
 preserveAspectRatio="xMidYMid meet">

<g transform="translate(0.000000,1280.000000) scale(0.100000,-0.100000)"
fill="#ffffff" stroke="none">
  
<path d="M7334 12129 c-38 -11 -49 -24 -57 -64 -7 -36 13 -65 60 -89 29 -14
133 -16 1025 -16 1047 -1 1100 -3 1145 -46 11 -10 34 -26 51 -36 28 -15 67
-63 99 -122 35 -65 37 -103 42 -856 l6 -745 29 -37 c39 -52 74 -52 110 0 l26
38 0 741 c0 833 -1 842 -67 960 -42 76 -141 179 -192 200 -18 8 -45 23 -60 33
-14 10 -61 26 -105 34 -68 14 -206 16 -1080 15 -565 0 -1015 -5 -1032 -10z"/>
<path d="M3477 11561 c-59 -23 -167 -95 -167 -112 0 -3 -15 -28 -32 -55 l-33
-49 -3 -483 c-2 -356 0 -488 9 -498 10 -12 455 -14 3005 -14 l2993 0 11 20
c17 31 9 902 -8 922 -6 8 -18 35 -25 59 -30 98 -98 165 -213 209 l-79 30
-2695 -1 -2695 -1 -68 -27z m3293 -457 c52 -47 54 -83 8 -127 -18 -16 -49 -34
-68 -38 -19 -5 -238 -9 -486 -9 l-450 0 -42 31 c-38 28 -42 35 -42 73 0 45 10
63 50 90 22 14 76 16 507 16 l483 0 40 -36z"/>
<path d="M3257 10132 c-15 -17 -17 -60 -17 -423 0 -302 3 -408 12 -417 9 -9
290 -12 1202 -12 939 0 1196 -3 1216 -13 14 -7 33 -28 42 -47 16 -32 17 -112
18 -1003 0 -1040 2 -995 -50 -1042 -22 -20 -38 -20 -1223 -22 -952 -2 -1202
-5 -1209 -15 -4 -7 -8 -830 -8 -1829 0 -1398 3 -1818 12 -1827 9 -9 689 -12
2999 -12 2703 0 2989 1 3003 16 20 20 23 233 4 252 -9 9 -201 12 -802 12 -435
0 -808 3 -829 7 -31 5 -44 14 -65 47 l-27 41 0 985 0 985 28 47 29 48 822 2
c682 3 826 5 840 17 15 13 16 166 14 2102 -3 1697 -5 2090 -16 2101 -11 11
-564 13 -2996 16 -2884 2 -2983 2 -2999 -16z m5628 -855 l40 -22 0 -1035 0
-1034 -40 -23 -40 -23 -850 3 c-805 2 -852 3 -879 20 -58 38 -56 -1 -56 1064
0 757 3 984 13 1003 6 14 32 35 57 48 l44 22 836 -1 835 -1 40 -21z m-4495
-2537 c46 -23 70 -55 70 -90 -1 -28 -34 -73 -65 -85 -11 -5 -92 -12 -180 -16
-146 -6 -164 -9 -209 -33 -47 -25 -51 -25 -75 -10 -43 26 -61 54 -61 92 0 52
57 99 152 125 120 32 139 35 236 36 74 1 100 -3 132 -19z m734 6 c61 -26 83
-85 52 -145 -19 -36 -71 -51 -172 -51 -129 1 -189 46 -169 126 15 58 67 83
173 84 49 0 96 -6 116 -14z m746 -6 c44 -23 60 -45 60 -87 0 -38 -25 -72 -66
-89 -45 -19 -181 -18 -227 1 -43 18 -57 40 -57 92 0 73 47 102 168 103 64 0
92 -5 122 -20z m740 0 c44 -23 60 -45 60 -87 0 -69 -59 -103 -179 -103 -127 0
-181 31 -181 105 0 44 11 60 65 88 46 25 185 23 235 -3z m466 -246 c34 -9 80
-82 98 -155 21 -85 20 -117 -4 -156 -22 -37 -74 -52 -109 -33 -32 17 -61 70
-61 110 0 21 -10 50 -24 71 -26 38 -29 48 -27 91 1 20 12 34 38 53 39 26 53
29 89 19z m-3308 -294 l42 -30 0 -114 c0 -128 -10 -168 -46 -185 -32 -14 -85
-14 -105 2 -29 22 -41 84 -37 192 4 111 11 128 63 151 40 17 36 18 83 -16z
m3397 -461 c29 -28 30 -32 33 -137 3 -97 1 -111 -20 -147 -40 -68 -117 -67
-159 2 -18 29 -20 46 -17 144 l3 111 40 34 c47 39 74 37 120 -7z m-3409 -270
c19 -11 39 -29 44 -39 6 -10 10 -66 10 -125 0 -145 -22 -185 -103 -185 -66 0
-91 59 -85 204 3 93 6 108 27 130 13 14 33 27 45 29 11 2 23 5 25 6 2 0 19 -8
37 -20z m3409 -470 c28 -28 30 -33 33 -134 4 -99 3 -107 -22 -150 -17 -28 -34
-45 -46 -45 -10 0 -26 -3 -35 -6 -11 -4 -29 7 -56 36 l-41 43 4 114 3 115 40
34 c47 39 74 37 120 -7z m-3357 -420 c4 -156 -18 -199 -99 -199 -68 0 -93 57
-87 204 4 115 13 135 73 161 28 11 33 10 70 -20 l40 -33 3 -113z m3296 -303
c30 -40 31 -49 11 -106 -10 -28 -39 -66 -84 -112 -63 -62 -73 -68 -111 -68
-58 0 -90 33 -90 93 0 35 6 49 28 69 15 15 42 43 60 65 72 82 86 93 123 93 30
0 41 -6 63 -34z m-3059 -171 c22 -8 63 -14 90 -15 41 0 57 -6 88 -31 32 -27
37 -36 37 -73 0 -39 -4 -46 -40 -70 -48 -31 -87 -33 -165 -6 -32 11 -69 20
-81 20 -14 0 -28 9 -35 22 -7 12 -21 29 -32 38 -18 15 -18 20 -8 53 14 41 53
77 85 77 11 0 39 -7 61 -15z m917 -52 c31 -30 38 -44 38 -75 0 -21 -4 -38 -9
-38 -5 0 -24 -12 -42 -27 -31 -27 -38 -28 -139 -28 -104 0 -108 1 -142 30 -24
20 -37 41 -40 63 -4 29 2 38 39 73 l43 39 107 0 107 0 38 -37z m736 1 c57 -48
58 -88 4 -131 -70 -57 -238 -58 -300 -2 -49 44 -50 75 -6 127 l36 42 112 0
112 0 42 -36z m740 -2 c58 -53 57 -86 0 -133 -43 -34 -43 -34 -148 -34 -105 0
-105 0 -147 34 -57 45 -58 80 -6 133 l37 38 111 0 112 0 41 -38z"/>
<path d="M7293 9095 l-23 -16 0 -863 0 -864 28 -11 c44 -18 1413 -11 1435 8
16 12 17 86 17 871 0 785 -1 859 -17 871 -13 12 -141 14 -717 17 -626 2 -703
1 -723 -13z"/>
<path d="M1940 9080 c-7 -14 -10 -282 -8 -863 3 -698 5 -847 17 -860 12 -16
149 -17 1778 -17 1197 0 1771 3 1784 10 19 10 19 31 19 868 0 654 -3 861 -12
870 -9 9 -420 12 -1790 12 -1763 0 -1777 0 -1788 -20z m1543 -364 l36 -43 -25
-36 c-13 -20 -33 -41 -44 -47 -12 -6 -216 -10 -582 -10 -620 0 -590 -3 -624
62 -15 28 -14 33 2 64 10 18 27 37 38 43 13 6 233 10 592 10 l572 1 35 -44z
m1170 -426 c54 -42 47 -116 -14 -147 -19 -10 -282 -13 -1179 -13 -1272 0
-1182 -5 -1215 61 -14 26 -14 32 0 58 33 66 -57 61 1221 61 1145 0 1162 0
1187 -20z m6 -384 c43 -41 42 -81 -3 -129 l-34 -37 -1159 0 -1160 0 -34 42
c-41 51 -40 80 5 125 l31 32 1162 -2 1162 -2 30 -29z"/>
<path d="M1094 6762 c-6 -4 -19 -22 -28 -40 -16 -32 -16 -36 0 -70 9 -21 22
-40 28 -44 6 -4 374 -8 818 -8 l808 0 29 41 c33 44 31 60 -6 103 l-23 26 -807
0 c-445 0 -813 -4 -819 -8z"/>
<path d="M1097 6309 c-11 -6 -25 -27 -34 -46 -13 -33 -13 -37 11 -73 21 -32
31 -38 72 -44 26 -3 388 -6 804 -6 l758 0 36 45 c36 43 36 45 21 74 -33 65 20
61 -855 61 -547 -1 -801 -4 -813 -11z"/>
<path d="M1093 5855 c-12 -8 -27 -31 -33 -50 -10 -31 -9 -38 15 -70 l27 -35
806 0 805 0 32 37 c38 44 36 72 -7 108 l-30 25 -797 0 c-693 0 -799 -2 -818
-15z"/>
<path d="M7754 5702 c-7 -7 -16 -27 -19 -45 -3 -18 -5 -401 -3 -852 2 -645 6
-825 16 -842 l13 -23 889 0 c869 0 890 0 900 19 16 32 12 75 -14 123 -13 24
-29 68 -35 96 -6 28 -20 68 -31 89 -11 21 -20 49 -20 64 0 14 -11 48 -25 75
-14 27 -29 73 -35 103 -5 29 -19 68 -30 86 -23 37 -36 119 -26 158 9 37 68 70
108 62 18 -4 38 -11 44 -16 7 -5 37 -16 68 -24 31 -8 67 -21 79 -29 12 -8 42
-20 67 -26 25 -6 73 -23 108 -36 55 -22 64 -23 77 -10 13 12 15 87 15 508 0
380 -3 498 -12 511 -12 16 -93 17 -1067 19 -847 2 -1057 0 -1067 -10z"/>
<path d="M1094 5401 c-21 -13 -33 -30 -38 -52 -6 -29 -2 -38 29 -69 l35 -35
788 0 787 0 37 30 c51 41 53 83 5 119 l-34 26 -789 0 c-756 0 -790 -1 -820
-19z"/>
<path d="M1114 4959 c-38 -11 -50 -24 -58 -64 -6 -26 -1 -36 29 -65 l36 -35
787 0 787 0 38 30 c32 26 37 35 35 64 -2 24 -12 40 -31 55 -28 21 -33 21 -810
23 -451 1 -795 -2 -813 -8z"/>
<path d="M9606 4537 c-17 -12 -17 -16 -2 -60 9 -26 16 -53 16 -59 0 -7 9 -31
20 -54 12 -23 24 -60 27 -81 3 -21 15 -56 26 -77 10 -22 27 -67 37 -100 10
-34 35 -106 55 -161 20 -55 44 -131 55 -168 10 -37 26 -79 34 -93 9 -13 21
-50 27 -82 6 -31 19 -70 29 -87 10 -16 21 -46 25 -65 4 -19 11 -45 16 -58 l9
-24 38 24 c20 12 99 85 175 160 163 163 155 162 263 54 85 -86 142 -136 153
-136 11 0 36 37 45 67 6 18 -9 39 -94 125 -91 93 -100 106 -95 133 4 22 44 68
158 178 l152 147 -24 20 c-13 11 -29 20 -36 20 -7 0 -37 11 -67 25 -29 14 -62
25 -74 25 -12 0 -41 11 -66 24 -24 13 -67 28 -95 34 -28 6 -66 20 -84 31 -19
10 -51 22 -72 25 -21 4 -59 18 -84 32 -25 13 -58 24 -72 24 -15 0 -45 9 -66
20 -22 11 -66 27 -99 36 -32 8 -68 22 -80 29 -12 8 -46 19 -76 26 -30 6 -71
22 -91 35 -40 27 -58 30 -83 11z"/>
<path d="M1093 4494 c-42 -33 -45 -79 -7 -115 l26 -24 791 -3 790 -2 39 25
c52 35 53 78 4 118 l-35 27 -788 0 -788 0 -32 -26z"/>
<path d="M3251 3276 c-8 -10 -11 -192 -9 -682 l3 -669 30 -48 c64 -102 137
-161 221 -176 81 -15 5433 -15 5503 0 27 6 62 21 78 35 15 13 36 27 45 30 28
9 85 96 115 175 l28 74 0 623 c0 606 -1 624 -19 638 -29 21 -5978 21 -5995 0z
m3112 -374 c64 -11 151 -63 201 -120 61 -70 89 -125 108 -216 16 -81 17 -95 4
-150 -8 -34 -18 -76 -21 -93 -4 -18 -12 -36 -19 -40 -8 -5 -20 -21 -29 -38
-25 -49 -93 -111 -165 -152 l-67 -38 -125 0 c-121 0 -127 1 -190 32 -57 29
-104 67 -168 138 -10 11 -33 50 -50 87 -30 62 -32 74 -32 171 0 99 12 167 30
167 5 0 13 15 20 34 11 35 114 156 133 156 6 0 21 10 33 21 51 48 196 65 337
41z"/>
<path d="M6155 2719 c-38 -23 -106 -82 -117 -102 -6 -11 -18 -47 -27 -80 -17
-58 -17 -62 4 -126 29 -86 65 -124 150 -155 74 -29 88 -28 182 11 56 23 67 31
103 89 36 57 40 70 40 126 -1 42 -7 75 -20 98 -10 19 -23 44 -28 55 -5 11 -34
36 -63 55 -48 31 -63 35 -129 38 -45 1 -83 -2 -95 -9z"/>
<path d="M2955 1223 c-38 -9 -65 -44 -65 -84 0 -51 28 -76 94 -84 28 -3 1359
-5 2957 -3 l2906 3 36 28 c52 39 50 72 -5 115 l-42 32 -2930 -1 c-1612 -1
-2940 -3 -2951 -6z"/>
<path d="M1990 810 c-37 -47 -35 -87 7 -120 25 -20 39 -20 1107 -20 677 0
1094 4 1115 10 41 12 51 24 51 68 0 25 -9 43 -34 68 l-34 34 -1090 0 -1090 0
-32 -40z"/>
<path d="M6140 831 c-30 -7 -93 -40 -101 -53 -3 -5 -3 -25 0 -45 4 -26 14 -41
36 -54 28 -17 154 -18 2311 -18 l2281 -1 27 25 c19 17 26 34 26 59 0 31 -6 40
-42 63 l-42 28 -2235 1 c-1230 1 -2247 -1 -2261 -5z"/>
<path d="M11098 827 c-48 -22 -68 -47 -68 -88 0 -29 6 -42 26 -58 26 -20 38
-21 333 -21 l307 0 27 28 c15 15 27 39 27 53 0 31 -42 72 -89 88 -47 15 -526
14 -563 -2z"/>
</g>
</svg>
