<?xml version="1.0" standalone="no"?>
<!DOCTYPE svg PUBLIC "-//W3C//DTD SVG 20010904//EN"
 "http://www.w3.org/TR/2001/REC-SVG-20010904/DTD/svg10.dtd">
<svg version="1.0" xmlns="http://www.w3.org/2000/svg"
 width="1280.000000pt" height="1280.000000pt" viewBox="0 0 1280.000000 1280.000000"
 preserveAspectRatio="xMidYMid meet">

<g transform="translate(0.000000,1280.000000) scale(0.100000,-0.100000)"
fill="#ffffff" stroke="none">
  
<path d="M1285 11370 c-82 -5 -111 -12 -165 -37 -36 -17 -88 -38 -117 -47 -28
-10 -57 -24 -64 -32 -7 -9 -26 -22 -43 -31 -17 -8 -47 -30 -66 -49 -107 -103
-153 -153 -170 -185 -10 -19 -26 -41 -34 -48 -9 -7 -23 -39 -33 -70 -9 -31
-26 -69 -36 -84 -10 -15 -26 -51 -35 -80 -15 -47 -17 -337 -20 -3287 -1 -1923
1 -3283 7 -3353 7 -100 14 -128 39 -180 16 -34 35 -80 42 -102 7 -22 28 -60
46 -84 19 -24 34 -49 34 -55 0 -9 19 -31 102 -114 37 -37 131 -112 141 -112 5
0 28 -13 50 -30 23 -16 76 -39 117 -50 41 -11 87 -27 101 -35 15 -8 58 -19 95
-25 44 -6 739 -10 1889 -10 1797 0 1820 0 1853 -20 37 -23 37 -24 18 -82 -8
-24 -17 -65 -21 -93 -4 -27 -18 -78 -31 -111 -14 -34 -33 -106 -44 -160 -10
-55 -30 -121 -44 -147 -14 -26 -30 -81 -37 -122 -7 -44 -18 -80 -28 -89 -12
-11 -55 -18 -139 -25 -110 -8 -125 -11 -154 -36 -18 -14 -49 -36 -68 -49 -19
-12 -40 -32 -46 -44 -6 -13 -21 -34 -34 -47 -12 -13 -26 -43 -31 -67 -10 -55
-11 -540 0 -595 11 -58 58 -117 160 -201 36 -30 48 -34 138 -43 157 -16 3651
-7 3683 9 59 30 157 111 177 148 35 62 53 195 53 384 0 172 -17 317 -44 368
-18 33 -64 76 -136 127 -53 37 -59 39 -155 45 -158 10 -173 24 -200 181 -9 52
-27 115 -40 140 -13 25 -33 93 -44 152 -11 58 -28 122 -39 144 -23 46 -38 94
-47 150 -5 34 -3 45 14 62 l21 21 1822 0 c1840 0 1920 1 1974 36 12 7 59 22
104 34 55 14 100 34 139 60 32 22 62 40 66 40 7 0 81 61 115 95 71 72 100 105
100 115 0 7 13 27 29 45 16 18 37 57 46 87 10 29 31 81 47 116 26 53 32 81 39
185 6 71 8 1485 7 3343 -3 3097 -4 3221 -22 3274 -10 30 -24 62 -31 70 -7 8
-21 42 -30 75 -22 74 -87 170 -181 266 -61 62 -116 109 -128 109 -7 0 -23 11
-36 25 -13 14 -48 33 -78 41 -30 9 -83 30 -119 46 -54 26 -83 32 -176 39 -133
9 -10156 9 -10302 -1z m10287 -259 c37 -5 91 -20 120 -34 29 -13 73 -32 98
-41 97 -36 230 -175 267 -279 11 -34 32 -82 45 -107 l23 -45 0 -3280 0 -3280
-31 -65 c-17 -36 -37 -82 -44 -103 -6 -20 -32 -61 -56 -89 -24 -29 -44 -56
-44 -60 0 -5 -24 -24 -52 -43 -29 -19 -65 -45 -79 -56 -15 -12 -89 -39 -164
-60 l-138 -39 -5074 0 -5074 0 -112 31 c-62 17 -130 39 -152 50 -122 59 -255
203 -278 300 -4 14 -15 35 -26 48 -11 13 -24 51 -30 89 -8 48 -11 975 -9 3322
3 3347 3 3320 38 3320 5 0 18 30 30 66 37 111 181 255 287 288 32 10 74 27 92
38 19 11 62 23 95 28 83 10 10184 12 10268 1z m-4025 -7860 c46 -21 45 -20 68
-146 9 -49 27 -113 41 -142 13 -29 33 -94 43 -146 10 -51 28 -113 38 -138 32
-71 35 -81 48 -152 12 -65 11 -69 -9 -82 -18 -13 -199 -15 -1328 -15 -1202 0
-1308 1 -1323 17 -21 20 -14 69 20 134 13 26 33 92 44 147 11 55 32 129 47
164 14 35 32 97 39 138 19 105 62 208 94 225 22 12 198 14 1081 14 1013 1
1057 0 1097 -18z m713 -1101 c32 -17 42 -99 38 -307 -3 -176 -5 -194 -24 -220
l-21 -28 -1764 -3 c-1816 -3 -1830 -2 -1861 36 -9 11 -14 74 -16 226 -4 245 4
287 53 297 52 11 3574 10 3595 -1z"/>
<path d="M1338 10534 c-24 -10 -43 -28 -55 -52 -17 -36 -18 -157 -21 -3147 -2
-2946 -1 -3112 15 -3144 10 -19 35 -48 56 -65 l39 -31 5072 0 5072 0 41 27
c22 14 47 42 57 61 15 33 16 263 14 3160 l-3 3126 -21 27 c-11 15 -36 33 -55
40 -27 10 -1085 13 -5104 13 -4520 0 -5074 -2 -5107 -15z m10011 -268 l21 -19
-2 -2923 c-3 -2791 -4 -2924 -21 -2941 -17 -17 -228 -18 -4890 -20 -3915 -2
-4877 0 -4897 10 l-25 13 -3 2934 c-1 1751 2 2938 7 2943 5 5 24 13 43 17 18
4 2218 7 4889 7 4768 -2 4857 -2 4878 -21z"/>
<path d="M7686 9704 c-26 -7 -50 -14 -51 -16 -15 -17 -115 -187 -115 -196 0
-6 -11 -24 -25 -40 -13 -16 -33 -49 -43 -73 -11 -24 -30 -58 -44 -74 -14 -17
-35 -52 -47 -80 -12 -27 -30 -59 -41 -70 -10 -11 -28 -42 -40 -70 -12 -27 -30
-59 -40 -70 -10 -11 -30 -45 -44 -75 -14 -30 -37 -68 -51 -85 -14 -16 -25 -35
-25 -42 0 -18 -33 -83 -42 -83 -4 0 -22 -28 -39 -62 -18 -35 -42 -76 -54 -93
-13 -16 -33 -53 -45 -82 -12 -29 -28 -57 -36 -64 -7 -6 -27 -39 -43 -74 -17
-35 -35 -66 -41 -70 -6 -4 -23 -34 -39 -68 -15 -34 -36 -69 -45 -77 -10 -8
-28 -37 -41 -65 -12 -27 -39 -74 -59 -104 -20 -29 -36 -59 -36 -66 0 -7 -13
-29 -29 -49 -17 -21 -35 -54 -42 -74 -7 -20 -27 -55 -46 -76 -18 -22 -33 -47
-33 -55 0 -19 -38 -83 -55 -93 -6 -4 -20 -29 -30 -55 -10 -26 -34 -70 -53 -98
-18 -27 -40 -65 -48 -85 -8 -19 -24 -44 -34 -55 -11 -11 -26 -41 -35 -65 -9
-25 -29 -58 -44 -75 -16 -16 -34 -47 -40 -67 -7 -20 -25 -53 -40 -72 -16 -19
-34 -50 -41 -68 -7 -18 -23 -47 -36 -64 -13 -17 -37 -59 -54 -92 -17 -34 -36
-64 -42 -68 -5 -4 -21 -32 -35 -63 -13 -31 -35 -67 -47 -81 -13 -14 -29 -41
-36 -60 -12 -32 -57 -109 -71 -120 -3 -3 -16 -27 -28 -55 -12 -27 -30 -59 -40
-70 -10 -11 -24 -35 -31 -53 -7 -18 -28 -52 -46 -75 -19 -23 -34 -47 -34 -54
0 -19 -33 -83 -42 -83 -5 0 -21 -26 -35 -57 -15 -32 -41 -78 -58 -103 -18 -25
-38 -61 -45 -80 -7 -19 -24 -46 -36 -60 -13 -14 -29 -41 -35 -60 -6 -19 -24
-51 -39 -70 -15 -19 -41 -65 -59 -102 -18 -38 -36 -68 -40 -68 -4 0 -16 -19
-27 -42 -10 -24 -35 -68 -55 -98 -21 -30 -44 -82 -53 -116 -14 -56 -14 -65 0
-108 20 -59 45 -76 110 -76 49 0 55 3 98 48 45 47 59 69 129 205 20 37 47 81
61 98 14 16 31 48 38 71 6 22 25 53 40 69 16 15 35 46 43 69 8 22 25 55 38 73
14 17 35 52 47 77 13 25 33 59 45 75 12 17 28 46 35 65 8 19 26 51 42 70 15
19 34 55 43 80 9 25 28 58 44 75 15 16 34 46 41 65 8 19 28 58 46 85 59 94
124 209 124 221 0 7 16 31 35 54 19 23 40 60 47 82 6 22 24 53 38 69 15 15 33
43 40 61 8 18 25 51 40 73 14 22 37 60 49 85 13 25 31 54 41 65 10 11 28 45
40 75 12 30 30 62 40 70 10 8 30 42 45 75 14 32 33 68 42 78 21 22 84 133 119
207 14 30 36 66 48 80 13 14 33 51 46 83 13 33 29 61 37 64 8 3 26 31 39 62
14 30 31 62 38 71 7 8 27 40 43 70 16 30 42 72 56 93 14 21 31 53 37 72 6 19
24 48 39 64 15 16 33 48 40 71 7 22 28 58 47 78 19 20 34 43 34 52 0 8 11 33
25 55 13 22 36 62 51 89 14 27 41 71 59 98 18 26 36 61 40 77 3 15 19 41 35
56 16 16 37 50 46 77 8 26 31 66 50 89 19 22 34 46 34 52 0 12 64 124 116 202
18 28 40 71 49 95 9 25 29 58 44 75 16 16 34 47 41 68 6 21 22 50 36 66 24 29
65 100 105 180 36 75 12 144 -63 181 -23 11 -42 19 -42 19 -1 -1 -23 -7 -50
-15z"/>
<path d="M4431 9282 l-45 -3 -933 -933 c-752 -753 -936 -943 -952 -979 -40
-94 -95 -32 950 -1078 589 -590 945 -939 957 -939 11 0 32 -3 48 -6 77 -14
171 115 122 168 -7 7 -26 31 -43 53 -16 22 -37 46 -46 52 -9 7 -41 38 -70 69
-30 32 -65 66 -78 78 -13 12 -29 28 -37 36 -18 20 -64 66 -89 88 -11 10 -29
29 -41 43 -11 13 -47 50 -80 82 -59 57 -80 78 -126 125 -47 46 -68 67 -125
126 -32 33 -69 69 -82 80 -14 12 -35 32 -48 46 -13 14 -32 34 -43 45 -11 11
-30 31 -43 44 -12 13 -35 36 -50 50 -153 140 -736 733 -746 758 -12 29 -11 36
7 65 11 18 395 407 852 863 689 688 836 840 861 888 29 57 29 57 11 85 -11 15
-27 39 -36 54 -21 35 -41 44 -95 40z"/>
<path d="M8389 9278 c-22 -18 -79 -104 -79 -119 0 -45 113 -165 881 -934 710
-712 879 -886 879 -910 0 -15 -71 -103 -132 -163 -40 -40 -83 -82 -94 -93 -12
-12 -32 -31 -45 -44 -13 -12 -31 -30 -40 -41 -9 -10 -41 -42 -70 -70 -30 -29
-64 -62 -75 -75 -12 -13 -37 -38 -55 -56 -19 -17 -41 -39 -50 -48 -9 -10 -27
-27 -40 -39 -13 -12 -34 -33 -45 -47 -12 -13 -50 -52 -85 -86 -35 -35 -68 -67
-74 -73 -5 -5 -23 -23 -40 -40 -16 -16 -39 -39 -51 -51 -24 -25 -223 -225
-252 -253 -29 -27 -71 -69 -85 -84 -6 -7 -111 -111 -232 -231 -212 -210 -281
-284 -302 -326 -7 -14 -6 -34 1 -64 10 -39 18 -48 57 -68 38 -19 54 -21 95
-14 49 7 51 9 742 702 380 382 702 703 714 714 12 11 47 46 77 79 31 32 65 66
75 75 11 9 33 30 48 46 15 17 32 34 37 38 27 24 68 65 82 83 10 10 47 48 83
83 36 35 66 71 66 80 0 9 7 28 14 44 13 23 13 31 0 55 -7 15 -14 33 -14 40 0
7 -422 435 -938 951 l-938 939 -49 6 c-35 5 -55 3 -66 -6z"/>
</g>
</svg>
